<?xml version="1.0" encoding="UTF-8" standalone="no"?>
<!DOCTYPE svg PUBLIC "-//W3C//DTD SVG 1.1//EN" "http://www.w3.org/Graphics/SVG/1.1/DTD/svg11.dtd">
<svg width="100%" height="100%" viewBox="0 0 667 119" version="1.1" xmlns="http://www.w3.org/2000/svg" xmlns:xlink="http://www.w3.org/1999/xlink" xml:space="preserve" xmlns:serif="http://www.serif.com/" style="fill-rule:evenodd;clip-rule:evenodd;stroke-linejoin:round;stroke-miterlimit:2;">
    <g transform="matrix(0.0810973,0,0,0.0810973,95.7565,-2.03208)">
        <g transform="matrix(4.16667,0,0,4.16667,-1222.89,-79.3481)">
            <path d="M984.511,25.416L753.996,25.416L753.996,103.927L821.394,103.927L821.394,374.594L917.113,374.594L917.113,103.927L984.511,103.927L984.511,25.416ZM731.052,374.235L635.333,374.235L635.333,25.416L731.052,25.416L731.052,374.235ZM619.201,374.235L512.727,374.235L386.177,238.364L386.177,160.57L508.783,25.057L618.484,25.057L477.236,200.722L619.201,374.235Z" style="fill:white;"/>
        </g>
        <g transform="matrix(4.16667,0,0,4.16667,-1222.89,-79.3481)">
            <path d="M90.416,153.041C72.132,175.269 56.359,199.646 44.169,225.817L363.233,374.235L90.416,153.041L90.416,153.041Z" style="fill:white;"/>
        </g>
        <g transform="matrix(4.16667,0,0,4.16667,-1222.89,-79.3481)">
            <path d="M363.233,374.235L214.456,57.681C187.927,69.87 163.55,84.927 141.323,102.852L363.233,374.235Z" style="fill:white;"/>
        </g>
        <g transform="matrix(4.16667,0,0,4.16667,-1222.89,-79.3481)">
            <path d="M363.233,374.235L363.591,25.416L360.724,25.416C332.402,25.416 304.798,29.001 278.269,35.454L363.233,374.235L363.233,374.235Z" style="fill:white;"/>
        </g>
        <g transform="matrix(4.16667,0,0,4.16667,-1222.89,-79.3481)">
            <path d="M21.226,288.912C14.056,316.159 10.471,344.838 10.112,374.235L363.233,374.235L21.226,288.912L21.226,288.912Z" style="fill:white;"/>
        </g>
    </g>
    <g transform="matrix(2.50556,0,0,2.50556,-599.875,-60.2101)">
        <g transform="matrix(50,0,0,50,369.142,70.5592)">
            <path d="M0.376,0.013C0.56,0.013 0.688,-0.105 0.695,-0.263L0.695,-0.268L0.523,-0.268L0.522,-0.263C0.51,-0.184 0.455,-0.136 0.377,-0.136C0.279,-0.136 0.216,-0.217 0.216,-0.353L0.216,-0.354C0.216,-0.488 0.278,-0.569 0.376,-0.569C0.458,-0.569 0.51,-0.517 0.521,-0.444L0.522,-0.437L0.694,-0.437L0.694,-0.441C0.688,-0.599 0.561,-0.717 0.376,-0.717C0.166,-0.717 0.034,-0.583 0.034,-0.353L0.034,-0.353C0.034,-0.123 0.165,0.013 0.376,0.013Z" style="fill:white;fill-rule:nonzero;"/>
        </g>
        <g transform="matrix(50,0,0,50,405.446,70.5592)">
            <path d="M0.053,-0L0.232,-0L0.232,-0.284L0.513,-0.284L0.513,-0L0.692,-0L0.692,-0.705L0.513,-0.705L0.513,-0.428L0.232,-0.428L0.232,-0.705L0.053,-0.705L0.053,-0Z" style="fill:white;fill-rule:nonzero;"/>
        </g>
        <g transform="matrix(50,0,0,50,442.726,70.5592)">
            <path d="M0.053,-0L0.536,-0L0.536,-0.144L0.232,-0.144L0.232,-0.287L0.518,-0.287L0.518,-0.421L0.232,-0.421L0.232,-0.561L0.536,-0.561L0.536,-0.705L0.053,-0.705L0.053,-0Z" style="fill:white;fill-rule:nonzero;"/>
        </g>
        <g transform="matrix(50,0,0,50,471.925,70.5592)">
            <path d="M0.053,-0L0.232,-0L0.232,-0.411L0.235,-0.411L0.519,-0L0.669,-0L0.669,-0.705L0.49,-0.705L0.49,-0.298L0.487,-0.298L0.205,-0.705L0.053,-0.705L0.053,-0Z" style="fill:white;fill-rule:nonzero;"/>
        </g>
    </g>
</svg>
