<?xml version="1.0" encoding="UTF-8"?><svg xmlns="http://www.w3.org/2000/svg" xmlns:xlink="http://www.w3.org/1999/xlink" version="1.1" x="0px" y="0px" width="100px" height="100px" viewBox="0 0 100 100" xml:space="preserve"><g id="_x37_7_Essential_Icons"><path id="User" d="M59.3 52.2C65.8 48.2 70 40.3 70 33c0-10.4-8.5-22-20-22S30 22.6 30 33c0 7.3 4.2 15.2 10.7 19.2C25.3 56.3 14 70.4 14 87c0 1.1.9 2 2 2h68c1.1 0 2-.9 2-2 0-16.6-11.3-30.7-26.7-34.8zM34 33c0-10.3 8.5-18 16-18s16 7.7 16 18-8.5 18-16 18-16-7.7-16-18zM18.1 85c1-16.7 15-30 31.9-30s30.9 13.3 31.9 30H18.1z"/></g><g id="Info"><path fill="#00F" d="M1224-790V894H-560V-790h1784m8-8H-568V902h1800V-798z" id="BORDER"/></g><metadata><rdf:RDF xmlns:rdf="http://www.w3.org/1999/02/22-rdf-syntax-ns#" xmlns:rdfs="http://www.w3.org/2000/01/rdf-schema#" xmlns:dc="http://purl.org/dc/elements/1.1/"><rdf:Description about="https://iconscout.com/legal#licenses" dc:title="essential,s,user" dc:description="essential,s,user" dc:publisher="Iconscout" dc:date="2017-09-15" dc:format="image/svg+xml" dc:language="en"><dc:creator><rdf:Bag><rdf:li>Bryn Taylor</rdf:li></rdf:Bag></dc:creator></rdf:Description></rdf:RDF></metadata></svg>